<?xml version="1.0" standalone="no"?><!DOCTYPE svg PUBLIC "-//W3C//DTD SVG 1.1//EN" "http://www.w3.org/Graphics/SVG/1.1/DTD/svg11.dtd"><svg t="1695438162514" class="icon" viewBox="0 0 1024 1024" version="1.1" xmlns="http://www.w3.org/2000/svg" p-id="8273" xmlns:xlink="http://www.w3.org/1999/xlink" width="200" height="200"><path d="M551.083969 132.885496c-11.725191 12.50687-23.450382 23.450382-25.01374 23.450382-2.345038 0-12.50687-7.035115-21.887023-15.633588-37.520611-32.048855-58.625954-7.816794-27.358779 30.485496 22.668702 25.79542 21.887023 41.429008-4.690076 71.914504-7.816794 9.380153-14.070229 21.105344-12.50687 25.79542 5.471756 16.415267 21.105344 12.50687 41.429008-10.161832 11.725191-13.28855 24.232061-24.232061 27.358778-24.232061 3.126718 0 15.633588 10.161832 28.140458 23.450381 25.79542 27.358779 30.485496 28.140458 41.429008 8.598474 8.598473-16.415267 3.126718-39.865649-9.380153-39.865649-11.725191 0-29.703817-21.105344-29.703817-34.393893 0-7.035115 3.908397-12.50687 7.816794-12.50687 4.690076 0 7.816794-4.690076 7.816794-10.943512 0-5.471756 5.471756-14.851908 11.725191-20.323664 15.633588-12.50687 14.851908-28.140458-0.781679-34.393893-7.816794-3.126718-20.323664 3.908397-34.393894 18.760305zM325.178626 261.862595c0.781679 78.167939 5.471756 133.667176 10.161832 140.70229 4.690076 6.253435 25.79542 13.28855 46.900763 15.633588 21.105344 3.126718 42.210687 5.471756 46.900764 6.253435 4.690076 0.781679 8.598473-7.035115 8.598473-17.978626 0-17.196947-3.908397-19.541985-33.612214-21.887022-33.612214-2.345038-33.612214-2.345038-31.267175-35.175573 2.345038-30.485496 3.908397-33.612214 31.267175-39.865649 21.105344-5.471756 29.703817-11.725191 29.703817-21.887023 0-10.943511-6.253435-14.070229-30.485496-14.070229-26.577099 0-30.485496-2.345038-34.393893-21.887023-5.471756-26.577099 7.816794-42.992366 28.922137-37.52061 9.380153 2.345038 21.105344 0.781679 27.358779-2.345038 17.978626-10.943511 3.908397-30.485496-24.232061-33.612214-21.887023-1.563359-26.577099-5.471756-28.140458-24.232061-2.345038-17.978626-6.253435-21.105344-25.79542-21.105344-23.450382 0-23.450382 0-21.887023 128.977099z" p-id="8274"></path><path d="M693.349618 142.265649c-3.908397 5.471756-8.598473 17.196947-10.943511 25.79542-1.563359 10.943511-11.725191 17.196947-35.957252 21.887023-25.79542 4.690076-32.830534 10.161832-31.267176 19.541984 1.563359 7.816794 10.943511 13.28855 21.887023 14.070229 46.900763 2.345038 46.900763 2.345038 46.900764 30.485497 0 16.415267-3.908397 28.140458-9.380153 28.140458-5.471756 0.781679-15.633588 2.345038-21.887023 3.126717-6.253435 0.781679-16.415267 2.345038-21.105343 3.126718-18.760305 1.563359-10.943511 24.232061 8.598473 24.232061 42.992366 0 54.717557 19.541985 35.175572 57.062595-13.28855 24.232061-21.887023 28.922137-58.625954 28.922138-21.105344 0-35.957252-4.690076-45.337404-14.851909-12.50687-13.28855-12.50687-15.633588 3.126717-41.429007 22.668702-39.083969 7.816794-70.351145-20.323664-42.210688-7.035115 7.816794-21.105344 9.380153-42.992366 7.035115-32.048855-4.690076-32.830534-3.908397-27.358779 14.070229 14.851908 47.682443 14.070229 53.154198-10.161832 78.949618-27.358779 28.922137-31.267176 45.337405-10.161832 45.337405 15.633588-0.781679 48.464122-25.79542 48.464122-38.30229 0-4.690076 3.126718-8.598473 6.253435-8.598473 8.598473 0 38.30229 28.140458 42.210687 39.865648 2.345038 6.253435 8.598473 7.816794 18.760305 3.126718 7.816794-3.126718 36.738931-7.035115 64.09771-8.598473 26.577099-1.563359 52.372519-4.690076 56.280916-7.035115 17.978626-10.943511 28.922137-59.407634 34.393894-144.610687 2.345038-49.245802 7.035115-98.491603 9.380152-110.216794 3.908397-15.633588 0.781679-21.105344-16.415267-28.922137-25.01374-11.725191-23.450382-11.725191-33.612214 0zM320.48855 474.479389c-12.50687 7.035115-25.01374 13.28855-26.5771 14.851909-1.563359 1.563359-3.908397 43.774046-6.253435 94.583206-1.563359 50.80916-7.035115 113.343511-10.943511 139.138931C258.735878 829.361832 258.735878 836.396947 276.714504 836.396947c25.01374 0 30.485496-24.232061 40.647328-166.49771 4.690076-69.569466 11.725191-134.448855 16.415267-143.047329 6.253435-14.070229 17.978626-17.978626 60.189313-23.450381 28.140458-3.126718 53.154198-5.471756 55.499237-5.471756 2.345038 0 58.625954 3.126718 125.068702 5.471756 91.456489 4.690076 124.287023 8.598473 132.885496 17.196946 9.380153 9.380153 11.725191 39.865649 11.725191 173.532825 0 154.772519 0.781679 161.807634 14.851909 161.807633 22.668702 0 26.577099-26.577099 31.267175-192.293129 4.690076-197.764885 16.415267-184.476336-167.279389-190.729771-75.041221-2.345038-163.370992-6.253435-195.419848-7.816794-42.992366-2.345038-64.879389 0-82.076335 9.380152z" p-id="8275"></path><path d="M467.444275 550.30229c-31.267176 17.196947-48.464122 36.738931-53.154199 60.189313-3.126718 12.50687-8.598473 24.232061-12.50687 26.577099-7.035115 4.690076 40.647328 50.027481 78.167939 74.259542 20.323664 13.28855 29.703817 64.879389 21.105344 112.561832-5.471756 27.358779-6.253435 28.140458-43.774046 28.140458s-38.30229-0.781679-46.119084-29.703816c-4.690076-15.633588-8.598473-43.774046-8.598474-62.534352 0-27.358779-2.345038-32.830534-14.851908-32.830534-28.922137 0-35.175573 23.450382-23.450382 91.456489 9.380153 53.935878 5.471756 50.80916 96.928245 71.132824 17.196947 3.908397 30.485496 10.161832 30.485496 14.070229-11.725191 79.731298-10.943511 104.745038 0.781679 104.745038 19.541985 0 32.830534-17.196947 33.612214-42.992366 0.781679-44.555725 14.070229-66.442748 40.647328-66.442748 21.887023 0 89.89313-26.577099 96.928245-38.30229 2.345038-3.126718 5.471756-21.105344 8.598473-39.865649 13.28855-105.526718 14.070229-100.054962-3.908397-105.526718-27.358779-8.598473-31.267176-2.345038-44.555725 89.89313-5.471756 38.30229-15.633588 46.900763-50.809161 46.900763-31.267176 0-31.267176 0-26.577099-29.703816 10.943511-73.477863 8.598473-103.963359-10.161832-123.505344-10.161832-10.161832-22.668702-18.760305-28.140458-18.760305-4.690076 0-18.760305-8.598473-29.703817-18.760306-16.415267-14.851908-18.760305-22.668702-14.070229-44.555725 4.690076-21.887023 10.161832-28.140458 37.520611-37.520611 28.140458-10.161832 34.393893-10.161832 60.189313 2.345039 22.668702 10.161832 28.140458 17.978626 28.140458 35.175572 0 11.725191-7.035115 28.922137-15.633588 38.30229-29.703817 32.048855-13.28855 52.372519 25.79542 31.267176 31.267176-16.415267 39.865649-31.267176 39.083969-63.316031-1.563359-32.048855-16.415267-52.372519-53.154198-72.696183-21.887023-11.725191-98.491603-11.725191-118.815267 0z" p-id="8276"></path></svg>